<svg xmlns="http://www.w3.org/2000/svg" width="1600" height="560" viewBox="0 0 1600 560" role="img" aria-label="Rentix Rent Control">
  <defs>
    <linearGradient id="bg" x1="0" y1="0" x2="1" y2="1">
      <stop offset="0" stop-color="#090b0e"/>
      <stop offset="0.55" stop-color="#11151a"/>
      <stop offset="1" stop-color="#0b0d10"/>
    </linearGradient>
    <linearGradient id="orange" x1="0" y1="0" x2="1" y2="1">
      <stop offset="0" stop-color="#ff9f43"/>
      <stop offset="1" stop-color="#ff6b1a"/>
    </linearGradient>
    <linearGradient id="panel" x1="0" y1="0" x2="0" y2="1">
      <stop offset="0" stop-color="#1b2027" stop-opacity=".98"/>
      <stop offset="1" stop-color="#10141a" stop-opacity=".98"/>
    </linearGradient>
    <filter id="glow" x="-50%" y="-50%" width="200%" height="200%">
      <feGaussianBlur stdDeviation="24"/>
    </filter>
    <filter id="shadow" x="-20%" y="-20%" width="140%" height="140%">
      <feDropShadow dx="0" dy="20" stdDeviation="30" flood-color="#000" flood-opacity=".55"/>
    </filter>
  </defs>
  <rect width="1600" height="560" rx="28" fill="url(#bg)"/>
  <circle cx="1320" cy="120" r="220" fill="#ff7a1a" opacity=".08" filter="url(#glow)"/>
  <circle cx="290" cy="470" r="180" fill="#ff9b37" opacity=".05" filter="url(#glow)"/>
  <g opacity=".08" stroke="#fff">
    <path d="M0 90H1600M0 180H1600M0 270H1600M0 360H1600M0 450H1600"/>
    <path d="M140 0V560M320 0V560M500 0V560M680 0V560M860 0V560M1040 0V560M1220 0V560M1400 0V560"/>
  </g>
  <g transform="translate(105 92)">
    <rect x="0" y="0" width="72" height="72" rx="20" fill="url(#orange)"/>
    <path d="M20 22h32v8H28v8h22v8H28v14h-8z" fill="#11151a"/>
    <text x="0" y="142" fill="#fff" font-family="Segoe UI,Arial,sans-serif" font-weight="800" font-size="72" letter-spacing="5">RENTIX</text>
    <text x="2" y="190" fill="#ff8a2a" font-family="Segoe UI,Arial,sans-serif" font-weight="700" font-size="24" letter-spacing="8">RENT CONTROL</text>
    <text x="2" y="252" fill="#c6ccd4" font-family="Segoe UI,Arial,sans-serif" font-size="24">Аренды · Автопарк · Возвраты · Аналитика</text>
    <text x="2" y="292" fill="#7f8996" font-family="Segoe UI,Arial,sans-serif" font-size="19">GTA 5 RP · Majestic RP · Россия Онлайн</text>
    <g transform="translate(0 336)">
      <rect width="190" height="52" rx="14" fill="url(#orange)"/>
      <text x="95" y="33" text-anchor="middle" fill="#11151a" font-family="Segoe UI,Arial,sans-serif" font-weight="800" font-size="17">RENTIXHUB.RU</text>
    </g>
  </g>
  <g transform="translate(850 78)" filter="url(#shadow)">
    <rect width="625" height="410" rx="28" fill="url(#panel)" stroke="#303741"/>
    <rect x="28" y="28" width="569" height="52" rx="14" fill="#0d1116" stroke="#262d36"/>
    <circle cx="54" cy="54" r="7" fill="#ff8a2a"/>
    <text x="76" y="60" fill="#dbe0e6" font-family="Segoe UI,Arial,sans-serif" font-size="17" font-weight="700">GTA 5 RP · Chiliad</text>
    <g transform="translate(28 104)">
      <rect width="174" height="108" rx="18" fill="#131820" stroke="#28303a"/>
      <text x="18" y="30" fill="#7f8996" font-family="Segoe UI,Arial,sans-serif" font-size="13">В АРЕНДЕ</text>
      <text x="18" y="72" fill="#fff" font-family="Segoe UI,Arial,sans-serif" font-size="31" font-weight="800">7 ТС</text>
      <rect x="18" y="88" width="80" height="5" rx="3" fill="#ff8a2a"/>
    </g>
    <g transform="translate(218 104)">
      <rect width="174" height="108" rx="18" fill="#131820" stroke="#28303a"/>
      <text x="18" y="30" fill="#7f8996" font-family="Segoe UI,Arial,sans-serif" font-size="13">СВОБОДНО</text>
      <text x="18" y="72" fill="#fff" font-family="Segoe UI,Arial,sans-serif" font-size="31" font-weight="800">2 ТС</text>
      <rect x="18" y="88" width="54" height="5" rx="3" fill="#54d38a"/>
    </g>
    <g transform="translate(408 104)">
      <rect width="189" height="108" rx="18" fill="#131820" stroke="#28303a"/>
      <text x="18" y="30" fill="#7f8996" font-family="Segoe UI,Arial,sans-serif" font-size="13">СЕГОДНЯ</text>
      <text x="18" y="72" fill="#fff" font-family="Segoe UI,Arial,sans-serif" font-size="29" font-weight="800">$48 500</text>
      <rect x="18" y="88" width="104" height="5" rx="3" fill="#ff8a2a"/>
    </g>
    <g transform="translate(28 236)">
      <rect width="569" height="146" rx="20" fill="#0f141a" stroke="#28303a"/>
      <text x="20" y="32" fill="#7f8996" font-family="Segoe UI,Arial,sans-serif" font-size="13">БЛИЖАЙШИЙ ВОЗВРАТ</text>
      <text x="20" y="68" fill="#fff" font-family="Segoe UI,Arial,sans-serif" font-size="21" font-weight="700">International 9900i #4</text>
      <text x="20" y="101" fill="#54d38a" font-family="Segoe UI,Arial,sans-serif" font-size="19" font-weight="700">через 27 минут</text>
      <rect x="20" y="118" width="529" height="7" rx="4" fill="#252c34"/>
      <rect x="20" y="118" width="455" height="7" rx="4" fill="url(#orange)"/>
    </g>
  </g>
</svg>